<svg width="21" height="20" viewBox="0 0 21 20" fill="none" xmlns="http://www.w3.org/2000/svg">
<g clip-path="url(#clip0)">
<path d="M17.1096 19.9999H7.09878C5.9492 19.9999 5.01318 19.0658 5.01318 17.9166V5.41659C5.01318 4.26742 5.9492 3.33325 7.09878 3.33325H17.1096C18.2592 3.33325 19.1952 4.26742 19.1952 5.41659V17.9166C19.1952 19.0658 18.2592 19.9999 17.1096 19.9999ZM7.09878 4.16659C6.40886 4.16659 5.84742 4.72742 5.84742 5.41659V17.9166C5.84742 18.6058 6.40886 19.1666 7.09878 19.1666H17.1096C17.7995 19.1666 18.361 18.6058 18.361 17.9166V5.41659C18.361 4.72742 17.7995 4.16659 17.1096 4.16659H7.09878Z" fill="black"/>
<path d="M3.76114 17.5H2.9269C1.77732 17.5 0.841309 16.5658 0.841309 15.4167V2.08333C0.841309 0.934167 1.77732 0 2.9269 0H12.9377C14.0873 0 15.0233 0.934167 15.0233 2.08333C15.0233 2.31333 14.8365 2.5 14.6062 2.5C14.376 2.5 14.1891 2.31333 14.1891 2.08333C14.1891 1.39417 13.6277 0.833333 12.9377 0.833333H2.9269C2.23699 0.833333 1.67555 1.39417 1.67555 2.08333V15.4167C1.67555 16.1058 2.23699 16.6667 2.9269 16.6667H3.76114C3.99139 16.6667 4.17826 16.8533 4.17826 17.0833C4.17826 17.3133 3.99139 17.5 3.76114 17.5Z" fill="black"/>
<path d="M15.4411 14.1666H8.76722C8.53697 14.1666 8.3501 13.9799 8.3501 13.7499C8.3501 13.5199 8.53697 13.3333 8.76722 13.3333H15.4411C15.6714 13.3333 15.8582 13.5199 15.8582 13.7499C15.8582 13.9799 15.6714 14.1666 15.4411 14.1666Z" fill="black"/>
<path d="M15.4411 17.5001H8.76722C8.53697 17.5001 8.3501 17.3134 8.3501 17.0834C8.3501 16.8534 8.53697 16.6667 8.76722 16.6667H15.4411C15.6714 16.6667 15.8582 16.8534 15.8582 17.0834C15.8582 17.3134 15.6714 17.5001 15.4411 17.5001Z" fill="black"/>
<path d="M15.4411 10.8333H8.76722C8.53697 10.8333 8.3501 10.6467 8.3501 10.4167C8.3501 10.1867 8.53697 10 8.76722 10H15.4411C15.6714 10 15.8582 10.1867 15.8582 10.4167C15.8582 10.6467 15.6714 10.8333 15.4411 10.8333Z" fill="black"/>
<path d="M15.4411 7.50008H8.76722C8.53697 7.50008 8.3501 7.31341 8.3501 7.08341C8.3501 6.85341 8.53697 6.66675 8.76722 6.66675H15.4411C15.6714 6.66675 15.8582 6.85341 15.8582 7.08341C15.8582 7.31341 15.6714 7.50008 15.4411 7.50008Z" fill="black"/>
</g>
<defs>
<clipPath id="clip0">
<rect width="20.0217" height="20" fill="white" transform="translate(0.0078125)"/>
</clipPath>
</defs>
</svg>
