<svg width="28" height="27" viewBox="0 0 28 27" fill="none" xmlns="http://www.w3.org/2000/svg">
<g clip-path="url(#clip0)" filter="url(#filter0_d)">
<path d="M16.4999 12.8337C16.0391 12.8337 15.6666 13.207 15.6666 13.6669V17.0003C15.6666 17.4595 15.2932 17.8336 14.8332 17.8336H12.3332V5.33374C12.3332 4.62208 11.8799 3.98625 11.1983 3.74959L10.9515 3.66704H14.8332C15.2932 3.66704 15.6666 4.04118 15.6666 4.50046V7.00044C15.6666 7.46034 16.0391 7.83372 16.4999 7.83372C16.9607 7.83372 17.3331 7.46034 17.3331 7.00044V4.50046C17.3331 3.12215 16.2115 2.00049 14.8332 2.00049H5.87498C5.84324 2.00049 5.81669 2.01468 5.78587 2.0188C5.74574 2.01544 5.70744 2.00049 5.6667 2.00049C4.74752 2.00049 4 2.74786 4 3.66704V18.6669C4 19.3786 4.45333 20.0144 5.13494 20.2511L10.15 21.9228C10.32 21.9753 10.489 22.0003 10.6666 22.0003C11.5858 22.0003 12.3332 21.2528 12.3332 20.3336V19.5003H14.8332C16.2115 19.5003 17.3331 18.3787 17.3331 17.0003V13.6669C17.3331 13.207 16.9607 12.8337 16.4999 12.8337Z" fill="white"/>
<path d="M23.7557 9.74439L20.4223 6.41114C20.1841 6.1728 19.8257 6.10108 19.5141 6.23017C19.2033 6.35941 18.9999 6.66352 18.9999 7.00027V9.50025H15.6667C15.2066 9.50025 14.8333 9.87347 14.8333 10.3335C14.8333 10.7936 15.2066 11.1668 15.6667 11.1668H18.9999V13.6668C18.9999 14.0035 19.2033 14.3076 19.5141 14.4369C19.8257 14.566 20.1841 14.4942 20.4223 14.2561L23.7557 10.9227C24.0815 10.5969 24.0815 10.0702 23.7557 9.74439Z" fill="white"/>
</g>
<defs>
<filter id="filter0_d" x="0" y="0" width="28" height="28" filterUnits="userSpaceOnUse" color-interpolation-filters="sRGB">
<feFlood flood-opacity="0" result="BackgroundImageFix"/>
<feColorMatrix in="SourceAlpha" type="matrix" values="0 0 0 0 0 0 0 0 0 0 0 0 0 0 0 0 0 0 127 0"/>
<feOffset dy="2"/>
<feGaussianBlur stdDeviation="2"/>
<feColorMatrix type="matrix" values="0 0 0 0 0 0 0 0 0 0 0 0 0 0 0 0 0 0 0.25 0"/>
<feBlend mode="normal" in2="BackgroundImageFix" result="effect1_dropShadow"/>
<feBlend mode="normal" in="SourceGraphic" in2="effect1_dropShadow" result="shape"/>
</filter>
<clipPath id="clip0">
<rect width="20" height="20" fill="white" transform="translate(4 2)"/>
</clipPath>
</defs>
</svg>
