<svg width="28" height="28" viewBox="0 0 28 28" fill="none" xmlns="http://www.w3.org/2000/svg">
<g filter="url(#filter0_d)">
<path d="M14 2C8.5 2 4 6.5 4 12C4 17.5 8.5 22 14 22C19.5 22 24 17.5 24 12C24 6.5 19.5 2 14 2ZM14 5C15.7 5 17 6.3 17 8C17 9.7 15.7 11 14 11C12.3 11 11 9.7 11 8C11 6.3 12.3 5 14 5ZM14 19.2C11.5 19.2 9.3 17.9 8 16C8 14 12 12.9 14 12.9C16 12.9 20 14 20 16C18.7 17.9 16.5 19.2 14 19.2Z" fill="white"/>
</g>
<defs>
<filter id="filter0_d" x="0" y="0" width="28" height="28" filterUnits="userSpaceOnUse" color-interpolation-filters="sRGB">
<feFlood flood-opacity="0" result="BackgroundImageFix"/>
<feColorMatrix in="SourceAlpha" type="matrix" values="0 0 0 0 0 0 0 0 0 0 0 0 0 0 0 0 0 0 127 0"/>
<feOffset dy="2"/>
<feGaussianBlur stdDeviation="2"/>
<feColorMatrix type="matrix" values="0 0 0 0 0 0 0 0 0 0 0 0 0 0 0 0 0 0 0.25 0"/>
<feBlend mode="normal" in2="BackgroundImageFix" result="effect1_dropShadow"/>
<feBlend mode="normal" in="SourceGraphic" in2="effect1_dropShadow" result="shape"/>
</filter>
</defs>
</svg>
